<svg xmlns="http://www.w3.org/2000/svg" viewBox="0 0 834.92 160.16"><defs><style>.cls-1{opacity:0.85;}.cls-2{fill:#202020;}</style></defs><title>Asset 10</title><g id="Layer_2" data-name="Layer 2"><g id="Layer_1-2" data-name="Layer 1"><g class="cls-1"><path class="cls-2" d="M765.3,10.31c-2.8-.06-5.63-.17-8.45-.28a14.88,14.88,0,0,1,4.47,4.6C763.22,16.08,764,13,765.3,10.31Z"/><path class="cls-2" d="M749,9.7c-.52,0-1-.06-1.5-.07a14.52,14.52,0,0,0-1.22,1.27A25.9,25.9,0,0,1,749,9.7Z"/><path class="cls-2" d="M734.58,13.85a11.92,11.92,0,0,0,7.42-.92C739.84,12,737.38,12.11,734.58,13.85Z"/><path class="cls-2" d="M746.41,16.55c-1-2-1.56-4-.15-5.61,0,0,0,0,.06,0-1.43.7-2.84,1.44-4.32,2A11.71,11.71,0,0,1,746.41,16.55Z"/><path class="cls-2" d="M746.41,16.55c1,1.88,2.43,3.62,3,4.71A28.39,28.39,0,0,0,746.41,16.55Z"/><path class="cls-2" d="M745.22,64.15c-1.37,1.57-1.74-11.87-4.46-8.73-3.28,2-6.27,4.63-9.23,6.79s-5.89,3.88-9,4.1c-2.68,3.2-8.13-11.39-10.82-8.21C705.09,62.32,689.1,81.45,699.18,80A186.6,186.6,0,0,0,719,74.82L728,72c1.52-.46,3.07-.91,4.67-1.35s3.22-.83,4.92-1.22C748.37,63.53,758.78,56.6,770,51.17c3.18-.79,6.22.1,9.27.86-4-1.9-8.14-3.76-12.7-5.53C760.5,43.09,754.21,60.65,745.22,64.15Z"/><path class="cls-2" d="M827.51,16.26l-4.28,4.65c-6.74-9.47-13.53-5.48-20.24-1.51,1.06,2.17,2.14,4.38,3.24,6.61,3.88-.88,4.23-4.65.66-7.48,8.21,7.92,15.72,9,23.38,7.36C829.71,22.26,829.72,18.05,827.51,16.26Z"/><path class="cls-2" d="M834.75,24.65c-1.5.48-3,.9-4.48,1.24,0,.38.12.76.19,1.16,1.5-.72,3-1.42,4.46-2.08Z"/><path class="cls-2" d="M704.37,28c-9.66.9-19.06,1.45-28.27,1.83s-18.24.67-27.19.71C647.75,33.3,647,36.4,645.07,35a15,15,0,0,0-4.55-4.45c-2.61,0-5.23,0-7.82-.1-.88.37-1.76.81-2.65,1.27,0,0-.06,0-.07.07-1.34,1.63-.73,3.66.33,5.57A29.08,29.08,0,0,1,633.42,42c-.59-1.09-2.07-2.78-3.11-4.64a11.44,11.44,0,0,0-4.49-3.47A11.61,11.61,0,0,1,618.48,35c2.7-1.82,5.15-2,7.34-1.18,1.45-.66,2.84-1.43,4.23-2.17.37-.46.76-.86,1.16-1.31L613.33,30a27.19,27.19,0,0,0-3.61,1.42c-4.12,2.17-8.21,4.33-11.42-1.93-1.06,0-2.13-.06-3.21-.14.23.4.48.71.72,1.16a8.32,8.32,0,0,1-1.3-1.17L581,28.77c-2.67,2.79-5.37,6.21-8.18,8.39l-3.62-6.39c-.9,3.46-2.43,5.84-4.36,7.15,2.79,3.78,5.39,8,7.69,10.53,3.61,6.39,5.46-14,10.16-1.73-4.7-12.3-6.55,8.12-10.16,1.73-2.3-2.55-4.9-6.75-7.69-10.53-4,2.8-9.68.93-14.71-5.16,4.93-6.18,10.06-1.15,14.71,5.16,1.93-1.31,3.46-3.69,4.36-7.15l3.62,6.39c2.81-2.18,5.51-5.6,8.18-8.39-8.87-.41-17.8-.67-26.94-.95-58.95-3-112.33,4.2-173,4-16.47-.25-32.63-1.08-48.59-2.42q-12-1-23.81-2.41t-23.53-3.35c-15.57-2.49-30.6-2.88-45.35-2.74-7.38.09-14.7.38-22,.68s-14.59.66-21.87.72c-14.56.2-29.18-.14-44.09-2.43a164,164,0,0,1-45.6-14.42A68.83,68.83,0,0,0,85.43.55,157,157,0,0,0,61.34.37c-4.09.23-8.18.6-12.17,1S41.28,2,37.55,2.42c-7.47.77-14.29,1.58-19.84,2C3,15.93-.45,36,0,53.61S5,86.36,5.79,88c9.78,24.38,18.49,29.66,29.58,32.37,5.56,1.34,11.73,2.06,19,4.16a84.63,84.63,0,0,1,25.77,12.16c-13.69-7.65-9-15.76,2.26-17.87A40.31,40.31,0,0,1,103,120.93a51.73,51.73,0,0,1,11.41,5.82,53.31,53.31,0,0,1,10.79,9.82c9.81,12.28,20.38,18.74,31.38,21.68a60.58,60.58,0,0,0,16.72,1.91,113.25,113.25,0,0,0,17.14-1.72c11.52-2,23.26-5,34.86-7.25s23.24-3.26,34.72-.93a43.64,43.64,0,0,0,8.68.82c2.91,0,5.86-.23,8.87-.53,6-.6,12.29-1.51,19-1.62a216.66,216.66,0,0,0,26.18,2.41c8.58.24,17.06,0,25.49-.59s16.8-1.54,25.14-2.72,16.6-2.64,24.9-4.18,16.61-3.19,25-4.83,16.73-3.25,25.22-4.73,17.06-2.82,25.77-3.9,17.5-1.85,26.49-2.26c9.46-1,18-5.06,26.17-9.89s15.76-10.36,23.4-14.53c11.41-3.4,24.47,1.93,33.89,1.07,14.81-1.42,27.15-7.24,38.89-14.21-13.47,3.66-23.14,8.13-38.18,11.49-10.09,1.72,5.48-17.78,11.92-22.16,2.62-3.25,8.47,11.21,11.09,7.94,6.27-.57,11.51-7.09,17.94-11.46,2.64-3.25,3.43,10.18,4.75,8.58,8.9-3.75,14.61-21.49,20.79-18.28,4.62,1.65,8.8,3.4,12.88,5.16a15.48,15.48,0,0,0,7.62.22c1.54-1.25,3.15-2.5,4.75-3.75-1.63-4-2.48-9-3.3-14,2.49.56,6.14,3.22,8.63,3.82-2.49-.6-6.14-3.26-8.63-3.82.82,5,1.67,10,3.3,14,11.53-8.76,25-16.67,37.73-23.32l-.25-1.18c-7.55,1.86-15,1.11-23.54-6.54,3.64,2.74,3.46,6.49-.39,7.54l-3.45-6.51c6.54-4.21,13.13-8.44,20.2.81L711,34.32c2.28,1.71,2.44,5.93,3.11,9.49a37.62,37.62,0,0,0,4.44-1.36C715,36,704.37,28,704.37,28Z"/><path class="cls-2" d="M625.61,33.48a25.74,25.74,0,0,1,3.6-1.36c-5-.23-10-.34-15-.54C617.37,37.85,621.48,35.67,625.61,33.48Z"/></g></g></g></svg>