<svg id="Group_2" data-name="Group 2" xmlns="http://www.w3.org/2000/svg" width="930.833" height="96.023" viewBox="0 0 930.833 96.023">
  <path id="Path_1" data-name="Path 1" d="M766.27,10.31c-3.122-.06-6.276-.17-9.42-.28a15.773,15.773,0,0,1,4.983,4.6C763.951,16.08,764.821,13,766.27,10.31Z" transform="translate(86.948 0.007)" fill="#202020"/>
  <path id="Path_2" data-name="Path 2" d="M749.312,9.7c-.58,0-1.115-.06-1.672-.07a15.379,15.379,0,0,0-1.36,1.27,30.652,30.652,0,0,1,3.032-1.2Z" transform="translate(85.734 0.007)" fill="#202020"/>
  <path id="Path_3" data-name="Path 3" d="M734.58,13.85a14.678,14.678,0,0,0,8.272-.92C740.444,12,737.7,12.11,734.58,13.85Z" transform="translate(84.391 0.007)" fill="#202020"/>
  <path id="Path_4" data-name="Path 4" d="M746.916,16.55c-1.115-2-1.739-4-.167-5.61h.067c-1.594.7-3.166,1.44-4.816,2a12.864,12.864,0,0,1,4.916,3.61Z" transform="translate(85.243 0.007)" fill="#202020"/>
  <path id="Path_5" data-name="Path 5" d="M746.41,16.55c1.115,1.88,2.709,3.62,3.344,4.71a28.2,28.2,0,0,0-3.344-4.71Z" transform="translate(85.749 0.007)" fill="#202020"/>
  <path id="Path_6" data-name="Path 6" d="M750.88,64.15c-1.527,1.57-1.94-11.87-4.972-8.73-3.657,2-6.99,4.63-10.29,6.79s-6.566,3.88-10.033,4.1c-2.988,3.2-9.064-11.39-12.062-8.21-7.38,4.22-25.206,23.35-13.969,21.9q11.2-2.044,22.1-5.18L731.682,72c1.695-.46,3.423-.91,5.206-1.35s3.59-.83,5.485-1.22C754.391,63.53,766,56.6,778.505,51.17c3.545-.79,6.934.1,10.334.86-4.459-1.9-9.075-3.76-14.158-5.53C767.914,43.09,760.9,60.65,750.88,64.15Z" transform="translate(79.953 -23.421)" fill="#202020"/>
  <path id="Path_7" data-name="Path 7" d="M830.326,16.26l-4.771,4.65c-7.514-9.47-15.084-5.48-22.564-1.51,1.182,2.17,2.386,4.38,3.612,6.61,4.326-.88,4.716-4.65.736-7.48,9.153,7.92,17.525,9,26.065,7.36C832.778,22.26,832.789,18.05,830.326,16.26Z" transform="translate(92.246 0.007)" fill="#202020"/>
  <path id="Path_8" data-name="Path 8" d="M835.264,24.65c-1.672.48-3.344.9-4.994,1.24a6.342,6.342,0,0,0,.212,1.16c1.672-.72,3.344-1.42,4.972-2.08Z" transform="translate(95.379 -6.833)" fill="#202020"/>
  <path id="Path_9" data-name="Path 9" d="M785.254,16.782c-10.769.539-21.249.869-31.516,1.1s-20.334.4-30.312.426c-1.293,1.654-2.129,3.513-4.281,2.674a16.276,16.276,0,0,0-5.072-2.668c-2.91,0-5.831,0-8.718-.06-.981.222-1.962.486-2.954.761,0,0-.067,0-.078.042-1.494.977-.814,2.194.368,3.339a21.913,21.913,0,0,1,3.467,2.781c-.658-.653-2.308-1.666-3.467-2.781a14.764,14.764,0,0,0-5.006-2.08,23.06,23.06,0,0,1-8.183.665,14.947,14.947,0,0,1,8.183-.707c1.617-.4,3.166-.857,4.716-1.3.412-.276.847-.516,1.293-.785l-19.933-.2c-1.377.232-2.722.516-4.024.851-4.593,1.3-9.153,2.6-12.731-1.157-1.182,0-2.375-.036-3.579-.084.256.24.535.426.8.7a9.694,9.694,0,0,1-1.449-.7l-15.061-.342c-2.977,1.672-5.987,3.723-9.119,5.029l-4.036-3.83a8.434,8.434,0,0,1-4.861,4.286c3.11,2.266,6.009,4.8,8.573,6.312,4.024,3.83,6.087-8.392,11.327-1.037-5.24-7.373-7.3,4.868-11.327,1.037-2.564-1.529-5.463-4.046-8.573-6.312-4.459,1.678-10.792.557-16.4-3.093,5.5-3.7,11.215-.689,16.4,3.093a8.433,8.433,0,0,0,4.861-4.286l4.036,3.83c3.133-1.307,6.143-3.357,9.119-5.029-9.888-.246-19.844-.4-30.033-.569-65.719-1.8-125.228,2.518-192.865,2.4-18.361-.15-36.377-.647-54.169-1.451q-13.378-.6-26.544-1.445t-26.232-2.008c-17.358-1.493-34.114-1.726-50.557-1.642-8.227.054-16.388.228-24.526.408s-16.265.4-24.381.432c-16.232.12-32.531-.084-49.153-1.457a306.421,306.421,0,0,1-50.836-8.644A134.189,134.189,0,0,0,95.244.327C86.31-.079,77.332-.115,68.388.219c-4.56.138-9.119.36-13.567.6s-8.8.378-12.954.629c-8.328.462-15.931.947-22.118,1.2C3.349,9.546-.5,21.577,0,32.133S5.578,51.765,6.459,52.748c10.9,14.614,20.613,17.78,32.977,19.4,6.2.8,13.077,1.235,21.182,2.494a141.79,141.79,0,0,1,28.729,7.289c-15.262-4.586-10.033-9.447,2.52-10.712a81.665,81.665,0,0,1,22.965,1.265,84.3,84.3,0,0,1,12.72,3.489,61.511,61.511,0,0,1,12.029,5.887c10.936,7.361,22.72,11.234,34.983,13A123.45,123.45,0,0,0,193.2,96c6.409-.082,12.8-.427,19.108-1.031,12.843-1.2,25.931-3,38.863-4.346s25.909-1.954,38.707-.557a89.469,89.469,0,0,0,9.677.492c3.244,0,6.533-.138,9.889-.318,6.689-.36,13.7-.905,21.182-.971,9.665.8,19.412,1.281,29.186,1.445,9.565.144,19.019,0,28.417-.354s18.729-.923,28.027-1.631,18.506-1.583,27.759-2.506,18.517-1.912,27.871-2.9S490.539,81.384,500,80.5s19.019-1.69,28.729-2.338,19.509-1.109,29.532-1.355c10.546-.6,20.067-3.033,29.175-5.929s17.57-6.21,26.087-8.71c12.72-2.038,27.28,1.157,37.781.641,16.511-.851,30.268-4.34,43.356-8.518-15.017,2.194-25.8,4.873-42.564,6.888-11.249,1.031,6.109-10.658,13.289-13.284,2.921-1.948,9.443,6.72,12.363,4.76,6.99-.342,12.832-4.25,20-6.87,2.943-1.948,3.824,6.1,5.3,5.143,9.922-2.248,16.288-12.882,23.177-10.958,5.151.989,9.81,2.038,14.359,3.093a31.715,31.715,0,0,0,8.495.132c1.717-.749,3.512-1.5,5.3-2.248-1.817-2.4-2.765-5.4-3.679-8.392,2.776.336,6.845,1.93,9.621,2.29-2.776-.36-6.845-1.954-9.621-2.29.914,3,1.862,5.994,3.679,8.392a403.927,403.927,0,0,1,42.062-13.979l-.279-.707c-8.417,1.115-16.722.665-26.243-3.92,4.058,1.642,3.857,3.89-.435,4.52l-3.846-3.9c7.291-2.524,14.638-5.059,22.519.486l4.493-2.871c2.542,1.025,2.72,3.555,3.467,5.689q2.519-.325,4.95-.815C797.1,21.577,785.254,16.782,785.254,16.782Z" transform="translate(0.038 0.007)" fill="#202020"/>
  <path id="Path_10" data-name="Path 10" d="M626.919,33.48a30.812,30.812,0,0,1,4.013-1.36c-5.574-.23-11.148-.34-16.722-.54C617.733,37.85,622.315,35.67,626.919,33.48Z" transform="translate(70.569 -12.98)" fill="#202020"/>
</svg>
